<svg width="102" height="47" viewBox="0 0 102 47" fill="none" xmlns="http://www.w3.org/2000/svg">
<path d="M13.0784 3.51938C14.1184 2.47938 15.2384 1.95938 16.4384 1.95938C17.6784 1.95938 18.6384 2.05937 19.3184 2.25937C19.9984 2.45937 20.5184 2.69937 20.8784 2.97938C21.2384 3.21938 21.5184 3.63937 21.7184 4.23937C21.9184 4.91937 22.0184 5.97938 22.0184 7.41938V40.8394C22.0184 41.7594 21.9784 42.4594 21.8984 42.9394C21.8584 43.3794 21.6784 43.8994 21.3584 44.4994C20.7984 45.5794 19.2384 46.1194 16.6784 46.1194C14.1984 46.1194 12.6584 45.5994 12.0584 44.5594C11.7384 43.9594 11.5384 43.4194 11.4584 42.9394C11.4184 42.4194 11.3984 41.6794 11.3984 40.7194V19.2994L10.6184 20.0194C8.97844 21.2594 7.57844 21.8794 6.41844 21.8794C5.25844 21.8794 4.03844 21.1794 2.75844 19.7794C1.51844 18.3794 0.898438 17.1394 0.898438 16.0594C0.898438 14.9794 1.61844 13.7994 3.05844 12.5194L12.8984 3.63937L13.0784 3.51938Z" fill="#FF9EDE"/>
<path d="M30.492 7.11938C31.652 5.47937 33.272 4.11938 35.352 3.03938C37.472 1.91938 39.912 1.35938 42.672 1.35938C45.432 1.35938 47.832 1.89938 49.872 2.97938C51.952 4.05937 53.572 5.39937 54.732 6.99937C55.932 8.59938 56.892 10.4794 57.612 12.6394C58.812 16.2394 59.412 20.0594 59.412 24.0994C59.412 31.3394 57.852 37.0794 54.732 41.3194C53.572 42.9194 51.952 44.2394 49.872 45.2794C47.832 46.3194 45.452 46.8394 42.732 46.8394C40.012 46.8394 37.592 46.3194 35.472 45.2794C33.392 44.1994 31.752 42.8794 30.552 41.3194C29.392 39.7594 28.432 37.8994 27.672 35.7394C26.512 32.2994 25.932 28.3994 25.932 24.0394C25.932 20.0394 26.392 16.6194 27.312 13.7794C28.272 10.9394 29.332 8.71937 30.492 7.11938ZM42.612 36.1594C46.732 36.1594 48.792 32.2394 48.792 24.3994V24.0394C48.792 15.9994 46.752 11.9794 42.672 11.9794C38.592 11.9794 36.552 16.0194 36.552 24.0994C36.552 32.1394 38.572 36.1594 42.612 36.1594Z" fill="#FF9EDE"/>
<path d="M88.4377 24.6406C88.4377 22.3473 89.0377 20.5206 90.2377 19.1606C91.4377 17.8006 93.1043 17.1206 95.2377 17.1206C97.3977 17.1206 99.051 17.7873 100.198 19.1206C101.344 20.454 101.918 22.3073 101.918 24.6806C101.918 27.0273 101.344 28.854 100.198 30.1606C99.051 31.4406 97.4243 32.0806 95.3177 32.0806C93.211 32.0806 91.531 31.414 90.2777 30.0806C89.051 28.7206 88.4377 26.9073 88.4377 24.6406ZM95.1577 27.2806C96.7843 27.2806 97.5977 26.374 97.5977 24.5606C97.5977 23.6006 97.3977 22.9206 96.9977 22.5206C96.6243 22.1206 96.011 21.9206 95.1577 21.9206C94.331 21.9206 93.731 22.134 93.3577 22.5606C92.9843 22.9606 92.7977 23.6406 92.7977 24.6006C92.7977 25.5606 92.9843 26.254 93.3577 26.6806C93.7577 27.0806 94.3577 27.2806 95.1577 27.2806ZM71.5977 10.0806C71.5977 7.78729 72.1977 5.96063 73.3977 4.60063C74.5977 3.24062 76.2643 2.56062 78.3977 2.56062C80.531 2.56062 82.171 3.22729 83.3177 4.56062C84.491 5.89396 85.0777 7.73396 85.0777 10.0806C85.0777 12.4273 84.491 14.254 83.3177 15.5606C82.171 16.8406 80.5443 17.4806 78.4377 17.4806C76.3577 17.4806 74.691 16.814 73.4377 15.4806C72.211 14.1473 71.5977 12.3473 71.5977 10.0806ZM78.3177 12.6806C79.9177 12.6806 80.7177 11.7873 80.7177 10.0006C80.7177 9.04063 80.531 8.36063 80.1577 7.96063C79.7843 7.56062 79.171 7.36062 78.3177 7.36062C77.491 7.36062 76.8777 7.57396 76.4777 8.00063C76.1043 8.40063 75.9177 9.08063 75.9177 10.0406C75.9177 10.974 76.1177 11.654 76.5177 12.0806C76.9177 12.4806 77.5177 12.6806 78.3177 12.6806ZM93.0777 1.56063C93.4243 0.947292 93.7577 0.640625 94.0777 0.640625C94.4243 0.640625 94.9177 0.813958 95.5577 1.16063C96.1977 1.50729 96.5177 1.88063 96.5177 2.28063C96.5177 2.46729 96.4243 2.72062 96.2377 3.04063L80.7577 32.2806L80.6777 32.4006C80.3843 32.934 80.0777 33.2006 79.7577 33.2006C79.4377 33.2006 78.9577 33.0273 78.3177 32.6806C77.6777 32.3606 77.3577 32.0406 77.3577 31.7206C77.3577 31.4006 77.451 31.0806 77.6377 30.7606L93.0777 1.56063Z" fill="#FF9EDE"/>
</svg>
