<svg width="135" height="46" viewBox="0 0 135 46" fill="none" xmlns="http://www.w3.org/2000/svg">
<path d="M13.0784 2.16C14.1184 1.12 15.2384 0.6 16.4384 0.6C17.6784 0.6 18.6384 0.7 19.3184 0.9C19.9984 1.1 20.5184 1.34 20.8784 1.62C21.2384 1.86 21.5184 2.28 21.7184 2.88C21.9184 3.56 22.0184 4.62 22.0184 6.06V39.48C22.0184 40.4 21.9784 41.1 21.8984 41.58C21.8584 42.02 21.6784 42.54 21.3584 43.14C20.7984 44.22 19.2384 44.76 16.6784 44.76C14.1984 44.76 12.6584 44.24 12.0584 43.2C11.7384 42.6 11.5384 42.06 11.4584 41.58C11.4184 41.06 11.3984 40.32 11.3984 39.36V17.94L10.6184 18.66C8.97844 19.9 7.57844 20.52 6.41844 20.52C5.25844 20.52 4.03844 19.82 2.75844 18.42C1.51844 17.02 0.898438 15.78 0.898438 14.7C0.898438 13.62 1.61844 12.44 3.05844 11.16L12.8984 2.28L13.0784 2.16Z" fill="#FF9EDE"/>
<path d="M30.492 5.76C31.652 4.12 33.272 2.76 35.352 1.68C37.472 0.56 39.912 0 42.672 0C45.432 0 47.832 0.54 49.872 1.62C51.952 2.7 53.572 4.04 54.732 5.64C55.932 7.24 56.892 9.12 57.612 11.28C58.812 14.88 59.412 18.7 59.412 22.74C59.412 29.98 57.852 35.72 54.732 39.96C53.572 41.56 51.952 42.88 49.872 43.92C47.832 44.96 45.452 45.48 42.732 45.48C40.012 45.48 37.592 44.96 35.472 43.92C33.392 42.84 31.752 41.52 30.552 39.96C29.392 38.4 28.432 36.54 27.672 34.38C26.512 30.94 25.932 27.04 25.932 22.68C25.932 18.68 26.392 15.26 27.312 12.42C28.272 9.58 29.332 7.36 30.492 5.76ZM42.612 34.8C46.732 34.8 48.792 30.88 48.792 23.04V22.68C48.792 14.64 46.752 10.62 42.672 10.62C38.592 10.62 36.552 14.66 36.552 22.74C36.552 30.78 38.572 34.8 42.612 34.8Z" fill="#FF9EDE"/>
<path d="M66.9959 5.76C68.1559 4.12 69.7759 2.76 71.8559 1.68C73.9759 0.56 76.4159 0 79.1759 0C81.9359 0 84.3359 0.54 86.3759 1.62C88.4559 2.7 90.0759 4.04 91.2359 5.64C92.4359 7.24 93.3959 9.12 94.1159 11.28C95.3159 14.88 95.9159 18.7 95.9159 22.74C95.9159 29.98 94.3559 35.72 91.2359 39.96C90.0759 41.56 88.4559 42.88 86.3759 43.92C84.3359 44.96 81.9559 45.48 79.2359 45.48C76.5159 45.48 74.0959 44.96 71.9759 43.92C69.8959 42.84 68.2559 41.52 67.0559 39.96C65.8959 38.4 64.9359 36.54 64.1759 34.38C63.0159 30.94 62.4359 27.04 62.4359 22.68C62.4359 18.68 62.8959 15.26 63.8159 12.42C64.7759 9.58 65.8359 7.36 66.9959 5.76ZM79.1159 34.8C83.2359 34.8 85.2959 30.88 85.2959 23.04V22.68C85.2959 14.64 83.2559 10.62 79.1759 10.62C75.0959 10.62 73.0559 14.66 73.0559 22.74C73.0559 30.78 75.0759 34.8 79.1159 34.8Z" fill="#FF9EDE"/>
<path d="M120.84 24C120.84 21.7067 121.44 19.88 122.64 18.52C123.84 17.16 125.507 16.48 127.64 16.48C129.8 16.48 131.453 17.1467 132.6 18.48C133.747 19.8133 134.32 21.6667 134.32 24.04C134.32 26.3867 133.747 28.2133 132.6 29.52C131.453 30.8 129.827 31.44 127.72 31.44C125.613 31.44 123.933 30.7733 122.68 29.44C121.453 28.08 120.84 26.2667 120.84 24ZM127.56 26.64C129.187 26.64 130 25.7333 130 23.92C130 22.96 129.8 22.28 129.4 21.88C129.027 21.48 128.413 21.28 127.56 21.28C126.733 21.28 126.133 21.4933 125.76 21.92C125.387 22.32 125.2 23 125.2 23.96C125.2 24.92 125.387 25.6133 125.76 26.04C126.16 26.44 126.76 26.64 127.56 26.64ZM104 9.44C104 7.14667 104.6 5.32 105.8 3.96C107 2.6 108.667 1.92 110.8 1.92C112.933 1.92 114.573 2.58667 115.72 3.92C116.893 5.25333 117.48 7.09333 117.48 9.44C117.48 11.7867 116.893 13.6133 115.72 14.92C114.573 16.2 112.947 16.84 110.84 16.84C108.76 16.84 107.093 16.1733 105.84 14.84C104.613 13.5067 104 11.7067 104 9.44ZM110.72 12.04C112.32 12.04 113.12 11.1467 113.12 9.36C113.12 8.4 112.933 7.72 112.56 7.32C112.187 6.92 111.573 6.72 110.72 6.72C109.893 6.72 109.28 6.93333 108.88 7.36C108.507 7.76 108.32 8.44 108.32 9.4C108.32 10.3333 108.52 11.0133 108.92 11.44C109.32 11.84 109.92 12.04 110.72 12.04ZM125.48 0.92C125.827 0.306667 126.16 0 126.48 0C126.827 0 127.32 0.173333 127.96 0.52C128.6 0.866667 128.92 1.24 128.92 1.64C128.92 1.82667 128.827 2.08 128.64 2.4L113.16 31.64L113.08 31.76C112.787 32.2933 112.48 32.56 112.16 32.56C111.84 32.56 111.36 32.3867 110.72 32.04C110.08 31.72 109.76 31.4 109.76 31.08C109.76 30.76 109.853 30.44 110.04 30.12L125.48 0.92Z" fill="#FF9EDE"/>
</svg>
