<svg width="101" height="47" viewBox="0 0 101 47" fill="none" xmlns="http://www.w3.org/2000/svg">
<path d="M29.36 35.4394C31 35.4394 32.16 35.6394 32.84 36.0394C33.56 36.3994 34.04 36.9794 34.28 37.7794C34.52 38.5394 34.64 39.5594 34.64 40.8394C34.64 42.0794 34.5 43.0794 34.22 43.8394C33.98 44.5994 33.56 45.1194 32.96 45.3994C32.08 45.8794 30.84 46.1194 29.24 46.1194H5.78C4.34 46.1194 3.1 45.5794 2.06 44.4994C1.02 43.4194 0.5 42.1594 0.5 40.7194C0.5 38.5594 1.24 36.5794 2.72 34.7794C4.24 32.9394 6.06 31.3794 8.18 30.0994C10.3 28.7794 12.42 27.4994 14.54 26.2594C16.66 24.9794 18.46 23.5394 19.94 21.9394C21.46 20.3394 22.22 18.6394 22.22 16.8394C22.22 16.4794 22.08 15.9794 21.8 15.3394C21.52 14.6594 21.2 14.1194 20.84 13.7194C20.52 13.2794 20 12.8794 19.28 12.5194C18.56 12.1594 17.56 11.9794 16.28 11.9794C15 11.9794 13.88 12.4594 12.92 13.4194C12 14.3394 11.48 15.2594 11.36 16.1794L11.12 17.5594V17.9194C11.12 18.7994 11.08 19.4594 11 19.8994C10.96 20.3394 10.78 20.8394 10.46 21.3994C9.86 22.3594 8.3 22.8394 5.78 22.8394C2.98 22.8394 1.32 22.0794 0.8 20.5594C0.6 19.9194 0.5 18.8994 0.5 17.4994C0.5 13.3394 1.98 9.61938 4.94 6.33938C7.94 3.01938 11.84 1.35938 16.64 1.35938C21.48 1.35938 25.4 3.03937 28.4 6.39937C31.4 9.71937 32.9 13.5194 32.9 17.7994C32.9 20.0794 32.4 22.2394 31.4 24.2794C30.4 26.3194 29.2 27.9594 27.8 29.1994C24.84 31.8394 22.2 33.6194 19.88 34.5394L18.38 35.1394V35.4394H29.36Z" fill="#FF9EDE"/>
<path d="M44.9225 1.89938L54.0425 1.95938H59.6825C60.6425 1.95938 61.3425 1.99937 61.7825 2.07937C62.2225 2.11937 62.7425 2.29938 63.3425 2.61937C64.4225 3.17937 64.9625 4.77937 64.9625 7.41938C64.9625 9.81938 64.4625 11.2794 63.4625 11.7994C62.9025 12.1194 62.4025 12.3194 61.9625 12.3994C61.5625 12.4394 60.9225 12.4594 60.0425 12.4594H49.5425C49.4625 12.9394 49.2625 14.4594 48.9425 17.0194C49.3825 16.9394 50.0825 16.8994 51.0425 16.8994C54.8425 16.8994 58.2625 18.3394 61.3025 21.2194C64.3425 24.0594 65.8625 27.5594 65.8625 31.7194C65.8625 35.8394 64.4225 39.3994 61.5425 42.3994C58.6625 45.3594 55.0825 46.8394 50.8025 46.8394C47.0825 46.8394 43.7225 45.8994 40.7225 44.0194C40.0425 43.5794 39.5425 43.1994 39.2225 42.8794L38.7425 42.4594C37.2225 41.1394 36.4625 39.9394 36.4625 38.8594C36.4625 37.7794 37.2025 36.4794 38.6825 34.9594C39.8825 33.6394 41.0425 32.9794 42.1625 32.9794C43.2825 32.9794 44.6225 33.6194 46.1825 34.8994C46.9025 35.7394 48.1425 36.1594 49.9025 36.1594C51.7025 36.1594 53.0225 35.7794 53.8625 35.0194C54.7425 34.2594 55.1825 33.2194 55.1825 31.8994C55.1825 30.5394 54.7025 29.4794 53.7425 28.7194C52.8225 27.9194 51.7625 27.5194 50.5625 27.5194C49.3625 27.5194 48.4025 27.8794 47.6825 28.5994C46.6025 29.5194 45.5025 29.9794 44.3825 29.9794C43.3025 29.9794 42.0425 29.5994 40.6025 28.8394C39.2025 28.0794 38.2825 27.4794 37.8425 27.0394C37.4025 26.5594 37.1825 26.0594 37.1825 25.5394C37.1825 25.0194 37.5825 21.7994 38.3825 15.8794C39.1825 9.95937 39.6025 6.87937 39.6425 6.63938C39.6825 6.39937 39.8225 5.97937 40.0625 5.37937C40.3025 4.77937 40.5825 4.23937 40.9025 3.75937C41.2625 3.27937 41.7825 2.85937 42.4625 2.49937C43.1825 2.09937 44.0025 1.89938 44.9225 1.89938Z" fill="#FF9EDE"/>
<path d="M87.4416 24.6396C87.4416 22.3463 88.0416 20.5196 89.2416 19.1596C90.4416 17.7996 92.1082 17.1196 94.2416 17.1196C96.4016 17.1196 98.0549 17.7863 99.2016 19.1196C100.348 20.453 100.922 22.3063 100.922 24.6796C100.922 27.0263 100.348 28.853 99.2016 30.1596C98.0549 31.4396 96.4282 32.0797 94.3216 32.0797C92.2149 32.0797 90.5349 31.413 89.2816 30.0797C88.0549 28.7197 87.4416 26.9063 87.4416 24.6396ZM94.1616 27.2796C95.7882 27.2796 96.6016 26.373 96.6016 24.5597C96.6016 23.5996 96.4016 22.9196 96.0016 22.5196C95.6282 22.1196 95.0149 21.9196 94.1616 21.9196C93.3349 21.9196 92.7349 22.133 92.3616 22.5596C91.9882 22.9596 91.8016 23.6396 91.8016 24.5996C91.8016 25.5596 91.9882 26.253 92.3616 26.6796C92.7616 27.0796 93.3616 27.2796 94.1616 27.2796ZM70.6016 10.0796C70.6016 7.78632 71.2016 5.95965 72.4016 4.59965C73.6016 3.23965 75.2682 2.55965 77.4016 2.55965C79.5349 2.55965 81.1749 3.22631 82.3216 4.55965C83.4949 5.89298 84.0816 7.73298 84.0816 10.0796C84.0816 12.4263 83.4949 14.253 82.3216 15.5596C81.1749 16.8396 79.5482 17.4796 77.4416 17.4796C75.3616 17.4796 73.6949 16.813 72.4416 15.4796C71.2149 14.1463 70.6016 12.3463 70.6016 10.0796ZM77.3216 12.6797C78.9216 12.6797 79.7216 11.7863 79.7216 9.99965C79.7216 9.03965 79.5349 8.35965 79.1616 7.95965C78.7882 7.55965 78.1749 7.35965 77.3216 7.35965C76.4949 7.35965 75.8816 7.57298 75.4816 7.99965C75.1082 8.39965 74.9216 9.07965 74.9216 10.0396C74.9216 10.973 75.1216 11.653 75.5216 12.0796C75.9216 12.4796 76.5216 12.6797 77.3216 12.6797ZM92.0816 1.55965C92.4282 0.946315 92.7616 0.639648 93.0816 0.639648C93.4282 0.639648 93.9216 0.812982 94.5616 1.15965C95.2016 1.50632 95.5216 1.87965 95.5216 2.27965C95.5216 2.46631 95.4282 2.71965 95.2416 3.03965L79.7616 32.2796L79.6816 32.3997C79.3882 32.933 79.0816 33.1996 78.7616 33.1996C78.4416 33.1996 77.9616 33.0263 77.3216 32.6796C76.6816 32.3596 76.3616 32.0396 76.3616 31.7197C76.3616 31.3997 76.4549 31.0796 76.6416 30.7596L92.0816 1.55965Z" fill="#FF9EDE"/>
</svg>
