<svg width="106" height="46" viewBox="0 0 106 46" fill="none" xmlns="http://www.w3.org/2000/svg">
<path d="M91.84 24C91.84 21.7067 92.44 19.88 93.64 18.52C94.84 17.16 96.5067 16.48 98.64 16.48C100.8 16.48 102.453 17.1467 103.6 18.48C104.747 19.8133 105.32 21.6667 105.32 24.04C105.32 26.3867 104.747 28.2133 103.6 29.52C102.453 30.8 100.827 31.44 98.72 31.44C96.6133 31.44 94.9333 30.7733 93.68 29.44C92.4533 28.08 91.84 26.2667 91.84 24ZM98.56 26.64C100.187 26.64 101 25.7333 101 23.92C101 22.96 100.8 22.28 100.4 21.88C100.027 21.48 99.4133 21.28 98.56 21.28C97.7333 21.28 97.1333 21.4933 96.76 21.92C96.3867 22.32 96.2 23 96.2 23.96C96.2 24.92 96.3867 25.6133 96.76 26.04C97.16 26.44 97.76 26.64 98.56 26.64ZM75 9.44C75 7.14667 75.6 5.32 76.8 3.96C78 2.6 79.6667 1.92 81.8 1.92C83.9333 1.92 85.5733 2.58667 86.72 3.92C87.8933 5.25333 88.48 7.09333 88.48 9.44C88.48 11.7867 87.8933 13.6133 86.72 14.92C85.5733 16.2 83.9467 16.84 81.84 16.84C79.76 16.84 78.0933 16.1733 76.84 14.84C75.6133 13.5067 75 11.7067 75 9.44ZM81.72 12.04C83.32 12.04 84.12 11.1467 84.12 9.36C84.12 8.4 83.9333 7.72 83.56 7.32C83.1867 6.92 82.5733 6.72 81.72 6.72C80.8933 6.72 80.28 6.93333 79.88 7.36C79.5067 7.76 79.32 8.44 79.32 9.4C79.32 10.3333 79.52 11.0133 79.92 11.44C80.32 11.84 80.92 12.04 81.72 12.04ZM96.48 0.92C96.8267 0.306667 97.16 0 97.48 0C97.8267 0 98.32 0.173333 98.96 0.52C99.6 0.866667 99.92 1.24 99.92 1.64C99.92 1.82667 99.8267 2.08 99.64 2.4L84.16 31.64L84.08 31.76C83.7867 32.2933 83.48 32.56 83.16 32.56C82.84 32.56 82.36 32.3867 81.72 32.04C81.08 31.72 80.76 31.4 80.76 31.08C80.76 30.76 80.8533 30.44 81.04 30.12L96.48 0.92Z" fill="#FF9EDE"/>
<path d="M9.35844 0.540001L18.4784 0.6H24.1184C25.0784 0.6 25.7784 0.639998 26.2184 0.719997C26.6584 0.759999 27.1784 0.94 27.7784 1.26C28.8584 1.82 29.3984 3.42 29.3984 6.06C29.3984 8.46 28.8984 9.92 27.8984 10.44C27.3384 10.76 26.8384 10.96 26.3984 11.04C25.9984 11.08 25.3584 11.1 24.4784 11.1H13.9784C13.8984 11.58 13.6984 13.1 13.3784 15.66C13.8184 15.58 14.5184 15.54 15.4784 15.54C19.2784 15.54 22.6984 16.98 25.7384 19.86C28.7784 22.7 30.2984 26.2 30.2984 30.36C30.2984 34.48 28.8584 38.04 25.9784 41.04C23.0984 44 19.5184 45.48 15.2384 45.48C11.5184 45.48 8.15844 44.54 5.15844 42.66C4.47844 42.22 3.97844 41.84 3.65844 41.52L3.17844 41.1C1.65844 39.78 0.898438 38.58 0.898438 37.5C0.898438 36.42 1.63844 35.12 3.11844 33.6C4.31844 32.28 5.47844 31.62 6.59844 31.62C7.71844 31.62 9.05844 32.26 10.6184 33.54C11.3384 34.38 12.5784 34.8 14.3384 34.8C16.1384 34.8 17.4584 34.42 18.2984 33.66C19.1784 32.9 19.6184 31.86 19.6184 30.54C19.6184 29.18 19.1384 28.12 18.1784 27.36C17.2584 26.56 16.1984 26.16 14.9984 26.16C13.7984 26.16 12.8384 26.52 12.1184 27.24C11.0384 28.16 9.93844 28.62 8.81844 28.62C7.73844 28.62 6.47844 28.24 5.03844 27.48C3.63844 26.72 2.71844 26.12 2.27844 25.68C1.83844 25.2 1.61844 24.7 1.61844 24.18C1.61844 23.66 2.01844 20.44 2.81844 14.52C3.61844 8.6 4.03844 5.52 4.07844 5.28C4.11844 5.04 4.25844 4.62 4.49844 4.02C4.73844 3.42 5.01844 2.88 5.33844 2.4C5.69844 1.92 6.21844 1.5 6.89844 1.14C7.61844 0.74 8.43844 0.540001 9.35844 0.540001Z" fill="#FF9EDE"/>
<path d="M37.8748 5.76C39.0348 4.12 40.6548 2.76 42.7348 1.68C44.8548 0.56 47.2948 0 50.0548 0C52.8148 0 55.2148 0.54 57.2548 1.62C59.3348 2.7 60.9548 4.04 62.1148 5.64C63.3148 7.24 64.2748 9.12 64.9948 11.28C66.1948 14.88 66.7948 18.7 66.7948 22.74C66.7948 29.98 65.2348 35.72 62.1148 39.96C60.9548 41.56 59.3348 42.88 57.2548 43.92C55.2148 44.96 52.8348 45.48 50.1148 45.48C47.3948 45.48 44.9748 44.96 42.8548 43.92C40.7748 42.84 39.1348 41.52 37.9348 39.96C36.7748 38.4 35.8148 36.54 35.0548 34.38C33.8948 30.94 33.3148 27.04 33.3148 22.68C33.3148 18.68 33.7748 15.26 34.6948 12.42C35.6548 9.58 36.7148 7.36 37.8748 5.76ZM49.9948 34.8C54.1148 34.8 56.1748 30.88 56.1748 23.04V22.68C56.1748 14.64 54.1348 10.62 50.0548 10.62C45.9748 10.62 43.9348 14.66 43.9348 22.74C43.9348 30.78 45.9548 34.8 49.9948 34.8Z" fill="#FF9EDE"/>
</svg>
