<svg width="103" height="45" viewBox="0 0 103 45" fill="none" xmlns="http://www.w3.org/2000/svg">
<path d="M27.4784 0.179996C30.2784 0.179996 31.9184 0.939999 32.3984 2.46C32.6384 3.1 32.7584 4.22 32.7584 5.82C32.7584 7.42 32.2384 9.42 31.1984 11.82C30.1584 14.18 28.8984 16.52 27.4184 18.84C25.9784 21.16 24.5184 23.5 23.0384 25.86C19.5184 31.58 17.7584 36.18 17.7584 39.66C17.7584 40.54 17.7184 41.2 17.6384 41.64C17.5584 42.04 17.3584 42.48 17.0384 42.96C16.7184 43.4 16.1784 43.7 15.4184 43.86C14.6984 44.02 13.6984 44.1 12.4184 44.1C11.1384 44.1 10.1184 44.02 9.35844 43.86C8.63844 43.7 8.11844 43.38 7.79844 42.9C7.47844 42.42 7.27844 41.98 7.19844 41.58C7.15844 41.14 7.13844 40.46 7.13844 39.54C7.13844 36.94 7.57844 34.28 8.45844 31.56C9.33844 28.8 10.3984 26.34 11.6384 24.18C12.8784 22.02 14.1184 20.04 15.3584 18.24C16.5984 16.4 17.6584 14.84 18.5384 13.56C19.4184 12.24 19.8584 11.32 19.8584 10.8H6.17844C4.57844 10.8 3.41844 10.6 2.69844 10.2C1.97844 9.8 1.49844 9.22 1.25844 8.46C1.01844 7.7 0.898438 6.7 0.898438 5.46C0.898438 4.22 1.01844 3.22 1.25844 2.46C1.49844 1.7 1.87844 1.18 2.39844 0.9C3.23844 0.419999 4.39844 0.179996 5.87844 0.179996H27.4784Z" fill="#FF9EDE"/>
<path d="M42.9912 0L52.1113 0.0599995H57.7512C58.7112 0.0599995 59.4113 0.0999975 59.8512 0.179996C60.2912 0.219998 60.8112 0.399999 61.4113 0.719997C62.4912 1.28 63.0312 2.88 63.0312 5.52C63.0312 7.92 62.5312 9.38 61.5312 9.9C60.9712 10.22 60.4712 10.42 60.0312 10.5C59.6312 10.54 58.9912 10.56 58.1112 10.56H47.6112C47.5312 11.04 47.3312 12.56 47.0112 15.12C47.4512 15.04 48.1512 15 49.1112 15C52.9112 15 56.3312 16.44 59.3713 19.32C62.4112 22.16 63.9312 25.66 63.9312 29.82C63.9312 33.94 62.4912 37.5 59.6113 40.5C56.7313 43.46 53.1513 44.94 48.8713 44.94C45.1512 44.94 41.7912 44 38.7912 42.12C38.1112 41.68 37.6112 41.3 37.2912 40.98L36.8112 40.56C35.2912 39.24 34.5312 38.04 34.5312 36.96C34.5312 35.88 35.2712 34.58 36.7512 33.06C37.9512 31.74 39.1113 31.08 40.2313 31.08C41.3512 31.08 42.6912 31.72 44.2512 33C44.9712 33.84 46.2113 34.26 47.9712 34.26C49.7712 34.26 51.0912 33.88 51.9312 33.12C52.8112 32.36 53.2513 31.32 53.2513 30C53.2513 28.64 52.7712 27.58 51.8112 26.82C50.8913 26.02 49.8312 25.62 48.6312 25.62C47.4312 25.62 46.4712 25.98 45.7512 26.7C44.6712 27.62 43.5712 28.08 42.4512 28.08C41.3713 28.08 40.1112 27.7 38.6712 26.94C37.2712 26.18 36.3512 25.58 35.9112 25.14C35.4712 24.66 35.2512 24.16 35.2512 23.64C35.2512 23.12 35.6512 19.9 36.4512 13.98C37.2512 8.06 37.6712 4.98 37.7113 4.74C37.7513 4.5 37.8912 4.08 38.1312 3.48C38.3713 2.88 38.6512 2.34 38.9712 1.86C39.3312 1.38 39.8512 0.959999 40.5312 0.599998C41.2513 0.199999 42.0713 0 42.9912 0Z" fill="#FF9EDE"/>
<path d="M88.84 24C88.84 21.7067 89.44 19.88 90.64 18.52C91.84 17.16 93.5067 16.48 95.64 16.48C97.8 16.48 99.4533 17.1467 100.6 18.48C101.747 19.8133 102.32 21.6667 102.32 24.04C102.32 26.3867 101.747 28.2133 100.6 29.52C99.4533 30.8 97.8267 31.44 95.72 31.44C93.6133 31.44 91.9333 30.7733 90.68 29.44C89.4533 28.08 88.84 26.2667 88.84 24ZM95.56 26.64C97.1867 26.64 98 25.7333 98 23.92C98 22.96 97.8 22.28 97.4 21.88C97.0267 21.48 96.4133 21.28 95.56 21.28C94.7333 21.28 94.1333 21.4933 93.76 21.92C93.3867 22.32 93.2 23 93.2 23.96C93.2 24.92 93.3867 25.6133 93.76 26.04C94.16 26.44 94.76 26.64 95.56 26.64ZM72 9.44C72 7.14667 72.6 5.32 73.8 3.96C75 2.6 76.6667 1.92 78.8 1.92C80.9333 1.92 82.5733 2.58667 83.72 3.92C84.8933 5.25333 85.48 7.09333 85.48 9.44C85.48 11.7867 84.8933 13.6133 83.72 14.92C82.5733 16.2 80.9467 16.84 78.84 16.84C76.76 16.84 75.0933 16.1733 73.84 14.84C72.6133 13.5067 72 11.7067 72 9.44ZM78.72 12.04C80.32 12.04 81.12 11.1467 81.12 9.36C81.12 8.4 80.9333 7.72 80.56 7.32C80.1867 6.92 79.5733 6.72 78.72 6.72C77.8933 6.72 77.28 6.93333 76.88 7.36C76.5067 7.76 76.32 8.44 76.32 9.4C76.32 10.3333 76.52 11.0133 76.92 11.44C77.32 11.84 77.92 12.04 78.72 12.04ZM93.48 0.92C93.8267 0.306667 94.16 0 94.48 0C94.8267 0 95.32 0.173333 95.96 0.52C96.6 0.866667 96.92 1.24 96.92 1.64C96.92 1.82667 96.8267 2.08 96.64 2.4L81.16 31.64L81.08 31.76C80.7867 32.2933 80.48 32.56 80.16 32.56C79.84 32.56 79.36 32.3867 78.72 32.04C78.08 31.72 77.76 31.4 77.76 31.08C77.76 30.76 77.8533 30.44 78.04 30.12L93.48 0.92Z" fill="#FF9EDE"/>
</svg>
