<svg width="176" height="171" viewBox="0 0 176 171" fill="none" xmlns="http://www.w3.org/2000/svg">
<path fill-rule="evenodd" clip-rule="evenodd" d="M87.5201 0C84.0149 0 81.1734 2.8415 81.1734 6.34667V15.1459L81.1733 13.5998C81.1733 10.0946 78.3318 7.25313 74.8267 7.25313C71.3215 7.25313 68.48 10.0946 68.48 13.5998V18.3087C51.4188 24.7699 37.4713 39.4742 29.98 58.4639C11.6016 70.1573 0 87.3153 0 106.437C0 141.675 39.3989 170.24 88 170.24C136.601 170.24 176 141.675 176 106.437C176 87.3153 164.398 70.1573 146.02 58.4639C138.389 39.1192 124.057 24.2216 106.56 17.955V13.5998C106.56 10.0946 103.718 7.25313 100.213 7.25313C96.7255 7.25313 93.8948 10.0665 93.8668 13.5476V6.34667C93.8668 2.8415 91.0253 0 87.5201 0ZM56 86.4985C60.418 86.4985 64 81.5888 64 75.5323C64 69.4758 60.418 64.5662 56 64.5662C51.5815 64.5662 48 69.4758 48 75.5323C48 81.5888 51.5815 86.4985 56 86.4985ZM120 86.4985C124.418 86.4985 128 81.5888 128 75.5323C128 69.4758 124.418 64.5662 120 64.5662C115.582 64.5662 112 69.4758 112 75.5323C112 81.5888 115.582 86.4985 120 86.4985ZM104.886 114.291C104.961 113.517 105 112.726 105 111.92C105 100.028 96.5952 91.4831 87.5 91.4831C78.4048 91.4831 70 100.028 70 111.92C70 112.967 70.0649 113.987 70.1899 114.978C74.8091 117.414 80.5786 118.898 86.9229 118.898C93.855 118.898 100.086 117.129 104.886 114.291ZM109.504 117.251C112.113 115.428 114.332 113.277 116.041 110.867C116.838 109.742 116.57 108.187 115.443 107.392C114.315 106.598 112.755 106.865 111.958 107.989C111.374 108.813 110.705 109.609 109.958 110.369C109.25 97.0508 99.4653 86.4985 87.5 86.4985C75.2183 86.4985 65.2344 97.6165 65.0039 111.43C64.2378 110.752 63.5366 110.039 62.9062 109.298C62.0137 108.249 60.436 108.119 59.3828 109.009C58.3296 109.9 58.1997 111.472 59.0928 112.523C60.9023 114.65 63.1284 116.539 65.6772 118.135C68.1318 129.17 76.9712 137.342 87.5 137.342C98.3076 137.342 107.335 128.731 109.504 117.251ZM103.343 120.644C98.4717 122.721 92.8467 123.883 86.9229 123.883C81.5483 123.883 76.4277 122.928 71.8926 121.205C74.8789 128.011 81.0137 132.357 87.5 132.357C94.1621 132.357 100.454 127.771 103.343 120.644Z" fill="#F2B344"/>
<path fill-rule="evenodd" clip-rule="evenodd" d="M87.5201 0C84.0149 0 81.1734 2.8415 81.1734 6.34667V15.1459L81.1733 13.5998C81.1733 10.0946 78.3318 7.25313 74.8267 7.25313C71.3215 7.25313 68.48 10.0946 68.48 13.5998V18.3087C51.4188 24.7699 37.4713 39.4742 29.98 58.4639C11.6016 70.1573 0 87.3153 0 106.437C0 141.675 39.3989 170.24 88 170.24C136.601 170.24 176 141.675 176 106.437C176 87.3153 164.398 70.1573 146.02 58.4639C138.389 39.1192 124.057 24.2216 106.56 17.955V13.5998C106.56 10.0946 103.718 7.25313 100.213 7.25313C96.7255 7.25313 93.8948 10.0665 93.8668 13.5476V6.34667C93.8668 2.8415 91.0253 0 87.5201 0ZM56 86.4985C60.418 86.4985 64 81.5888 64 75.5323C64 69.4758 60.418 64.5662 56 64.5662C51.5815 64.5662 48 69.4758 48 75.5323C48 81.5888 51.5815 86.4985 56 86.4985ZM120 86.4985C124.418 86.4985 128 81.5888 128 75.5323C128 69.4758 124.418 64.5662 120 64.5662C115.582 64.5662 112 69.4758 112 75.5323C112 81.5888 115.582 86.4985 120 86.4985ZM109.504 117.251C112.113 115.428 114.332 113.277 116.041 110.867C116.838 109.742 116.57 108.187 115.443 107.392C114.315 106.598 112.755 106.865 111.958 107.989C111.374 108.813 110.705 109.609 109.958 110.369C109.25 97.0508 99.4653 86.4985 87.5 86.4985C75.2183 86.4985 65.2344 97.6165 65.0039 111.43C64.2378 110.752 63.5366 110.039 62.9062 109.298C62.0137 108.249 60.436 108.119 59.3828 109.009C58.3296 109.9 58.1997 111.472 59.0928 112.523C60.9023 114.65 63.1284 116.539 65.6772 118.135C68.1318 129.17 76.9712 137.342 87.5 137.342C98.3076 137.342 107.335 128.731 109.504 117.251Z" fill="#FFF3A9"/>
</svg>
