<svg width="50" height="50" viewBox="0 0 50 50" fill="none" xmlns="http://www.w3.org/2000/svg">
<path fill-rule="evenodd" clip-rule="evenodd" d="M25 50C38.8071 50 50 38.8071 50 25C50 11.1929 38.8071 0 25 0C11.1929 0 0 11.1929 0 25C0 38.8071 11.1929 50 25 50ZM28.3772 15.0027C28.5269 15.0136 32.0252 15.3152 34.2365 17.0947C35.4366 18.2015 37.7782 24.5296 37.7782 30.0006C37.7782 30.0982 37.7522 30.1915 37.7044 30.2762C36.0899 33.1147 31.6823 33.8569 30.6775 33.8895H30.6602C30.4822 33.8895 30.3151 33.8048 30.2109 33.6616L29.1953 32.264C31.9362 31.5566 33.3359 30.3543 33.4162 30.2827C33.6463 30.0809 33.668 29.7315 33.4662 29.5014C33.2622 29.2692 32.9128 29.2497 32.6827 29.4493L32.6819 29.4501C32.622 29.5004 30.0446 31.6672 25.0004 31.6672C19.931 31.6672 17.3529 29.4797 17.3203 29.4493C17.0903 29.2475 16.7387 29.2692 16.5369 29.4993C16.3329 29.7293 16.3546 30.0809 16.5846 30.2827C16.6649 30.3543 18.0647 31.5566 20.8056 32.264L19.7899 33.6616C19.6858 33.8048 19.5187 33.8895 19.3407 33.8895H19.3234C18.3186 33.8569 13.911 33.1147 12.2964 30.2762C12.2487 30.1915 12.2227 30.0982 12.2227 30.0006C12.2227 24.5296 14.5642 18.2015 15.7339 17.1186C17.9757 15.3152 21.474 15.0136 21.6237 15.0027C21.8581 14.9789 22.0773 15.1134 22.1749 15.3283L22.1757 15.3302C22.1862 15.3545 22.2601 15.5258 22.342 15.7927C20.8793 16.0379 19.0825 16.537 17.457 17.544C17.1966 17.7067 17.1163 18.0474 17.2791 18.31C17.4397 18.5704 17.7826 18.6507 18.043 18.488C20.8359 16.754 24.3277 16.6672 25.0004 16.6672C25.6732 16.6672 29.1628 16.754 31.9579 18.488C32.049 18.5444 32.151 18.5726 32.2509 18.5726C32.4375 18.5726 32.6176 18.4793 32.724 18.3079C32.8846 18.0474 32.8043 17.7046 32.5438 17.544C30.9184 16.5349 29.1215 16.0379 27.6589 15.7905C27.7435 15.5171 27.8194 15.3413 27.8281 15.3283C27.9236 15.1134 28.145 14.9832 28.3772 15.0027ZM19.4449 25.5561C19.4449 26.7844 20.3151 27.7783 21.3893 27.7783C22.4635 27.7783 23.3338 26.7844 23.3338 25.5561C23.3338 24.3278 22.4635 23.3339 21.3893 23.3339C20.3151 23.3339 19.4449 24.3278 19.4449 25.5561ZM26.6671 25.5561C26.6671 26.7844 27.5373 27.7783 28.6115 27.7783C29.6858 27.7783 30.556 26.7844 30.556 25.5561C30.556 24.3278 29.6858 23.3339 28.6115 23.3339C27.5373 23.3339 26.6671 24.3278 26.6671 25.5561Z" fill="#5869EB"/>
</svg>
