<svg width="50" height="50" viewBox="0 0 50 50" fill="none" xmlns="http://www.w3.org/2000/svg">
<path fill-rule="evenodd" clip-rule="evenodd" d="M25 50C38.8071 50 50 38.8071 50 25C50 11.1929 38.8071 0 25 0C11.1929 0 0 11.1929 0 25C0 38.8071 11.1929 50 25 50ZM10.0894 21.1943C10.8409 14.4673 16.4022 8.93613 23.3162 8.18867C32.3345 7.14224 40 14.1683 40 23.1377C40 29.4163 36.0921 34.7979 30.5308 37.0403C29.9296 37.1897 29.4787 36.7413 29.4787 36.2928V32.4061C29.4787 31.0607 28.8775 29.7152 27.9756 28.9678C31.4326 28.2203 33.9878 26.277 33.9878 22.9882C33.9878 21.1943 33.2363 19.6994 32.1842 18.5035C32.3345 18.2045 32.4848 17.6066 32.4848 16.4106C32.4848 15.8127 32.4848 14.9157 32.1842 14.0188C32.1842 14.0188 29.9296 14.0188 27.9756 15.9622C27.0738 15.6632 26.0217 15.5137 24.9695 15.5137C23.9174 15.5137 22.8653 15.6632 22.1138 15.9622C20.0095 14.0188 17.9052 14.0188 17.9052 14.0188C17.4543 14.9157 17.4543 15.8127 17.4543 16.4106C17.4543 17.4571 17.6046 18.2045 17.7549 18.5035C16.7028 19.6994 15.9513 21.3438 15.9513 22.9882C15.9513 26.277 18.5065 28.2203 21.9635 28.9678C21.0616 29.5658 20.6107 30.6122 20.4604 31.6586C20.1598 31.8081 19.7089 31.9576 19.1077 31.9576C18.6568 31.9576 17.7549 31.6586 17.0034 30.4627C16.7028 30.0142 15.9513 28.9678 15.0495 28.9678C14.8991 28.9678 14.4482 28.9678 14.4482 29.2668C14.4482 29.3815 14.5368 29.4082 14.7819 29.482C14.8561 29.5043 14.9447 29.531 15.0495 29.5658C15.5004 30.0142 15.801 30.4627 15.9513 31.0607C16.1016 32.1071 17.0034 33.901 19.1077 33.901C19.8592 33.901 20.4604 33.7515 20.4604 33.7515V36.1433C20.4604 36.7413 20.0095 37.0403 19.5586 36.8908C13.3961 34.4989 9.33788 28.2203 10.0894 21.1943Z" fill="#566774"/>
</svg>
