<svg width="50" height="50" viewBox="0 0 50 50" fill="none" xmlns="http://www.w3.org/2000/svg">
<path fill-rule="evenodd" clip-rule="evenodd" d="M50 25C50 38.8071 38.8071 50 25 50C11.1929 50 0 38.8071 0 25C0 11.1929 11.1929 0 25 0C38.8071 0 50 11.1929 50 25ZM13.7547 25.9288L13.8513 25.7853L19.6805 17.1731C19.7657 17.047 19.966 17.0601 20.0305 17.197C21.0043 19.2582 21.8446 21.8217 21.4509 23.4176C21.2829 24.0742 20.8224 24.9635 20.3044 25.7853C20.2377 25.9049 20.164 26.0223 20.0857 26.1354C20.0489 26.1875 19.9867 26.218 19.9199 26.218H13.925C13.7638 26.218 13.6695 26.0528 13.7547 25.9288ZM39.8141 29.1493V27.7103C39.8141 27.5771 39.6802 27.4807 39.5486 27.5175L32.4667 29.4821C32.4284 29.4913 32.3949 29.5119 32.3686 29.5395C31.6108 30.3427 30.9666 30.882 30.7952 31.0256L30.7829 31.0359C30.3428 31.3939 29.7975 31.589 29.2235 31.589H26.6596V29.0804H28.6973C28.7499 29.0804 28.8001 29.0621 28.8384 29.0299L29.1015 28.7981C29.2139 28.6994 29.3479 28.5801 29.5081 28.4263C29.5213 28.4136 29.5347 28.4008 29.5482 28.3879C29.6328 28.307 29.7232 28.2206 29.8119 28.1257C29.9171 28.027 30.0199 27.9168 30.1156 27.809C30.2758 27.6437 30.4289 27.4715 30.5892 27.2902C30.704 27.1709 30.8092 27.0355 30.912 26.9001C31.0269 26.7715 31.1393 26.627 31.2445 26.4893C31.2836 26.4342 31.3252 26.3785 31.3677 26.3215C31.4084 26.267 31.4499 26.2114 31.4909 26.1542C31.5674 26.044 31.6439 25.9269 31.7085 25.8168C31.9094 25.5184 32.0792 25.1994 32.2227 24.8804C32.2886 24.7437 32.3413 24.5998 32.3925 24.46C32.3989 24.4424 32.4053 24.425 32.4117 24.4076C32.4691 24.2446 32.5169 24.0909 32.5528 23.9279C32.6389 23.5446 32.658 23.1636 32.6198 22.7827C32.6102 22.6634 32.6006 22.5463 32.5719 22.4361V22.4178C32.5623 22.3397 32.5432 22.2525 32.5169 22.1722C32.4308 21.8004 32.2968 21.4286 32.1271 21.0636C32.0696 20.9282 32.0027 20.7905 31.9381 20.6643C31.7851 20.3912 31.6248 20.1181 31.443 19.8541C31.4065 19.7984 31.3662 19.7419 31.326 19.6855C31.295 19.6421 31.2641 19.5987 31.2349 19.5558C31.12 19.3857 30.9908 19.2217 30.8655 19.0626C30.8369 19.0263 30.8085 18.9903 30.7805 18.9545C30.7062 18.8608 30.6248 18.7672 30.5429 18.673C30.4984 18.6216 30.4536 18.5702 30.4098 18.5184C30.2854 18.3738 30.1634 18.2361 30.0391 18.1007C29.5942 17.6187 29.1278 17.1826 28.7117 16.8109C28.6351 16.7374 28.5514 16.664 28.4653 16.5928C28.1424 16.3105 27.8483 16.0649 27.6019 15.8744C27.5275 15.8195 27.4607 15.7654 27.3986 15.715C27.357 15.6812 27.3174 15.6491 27.279 15.6196C27.2038 15.5659 27.1386 15.5182 27.0839 15.4783C27.05 15.4534 27.0201 15.4316 26.9944 15.4131C26.9752 15.3993 26.9537 15.3902 26.9322 15.3833L26.6596 15.3098V13.1433C26.6596 12.7898 26.5113 12.4731 26.2745 12.2413C26.0377 12.0095 25.7077 11.8672 25.3441 11.8672C24.617 11.8672 24.0286 12.4387 24.0286 13.1433V14.6029L23.8923 14.5662L23.5216 14.4652L23.1844 14.3757C23.182 14.3757 23.1796 14.3734 23.1748 14.3734H23.1676L20.6084 13.7078C20.496 13.678 20.4004 13.7951 20.4578 13.8938L20.8667 14.619C20.89 14.6747 20.9193 14.7303 20.9495 14.7875C20.9691 14.8246 20.9891 14.8624 21.0079 14.9013C21.0749 15.0299 21.1418 15.1652 21.2064 15.3007C21.2638 15.42 21.3212 15.537 21.3882 15.6656C21.4161 15.7255 21.4446 15.7862 21.4735 15.8478C21.5806 16.076 21.6932 16.316 21.8043 16.5745L21.8053 16.5765C21.9006 16.7939 21.996 17.0112 22.0794 17.2377C22.309 17.8092 22.5266 18.4197 22.7156 19.0463C22.7626 19.1864 22.8001 19.3219 22.8382 19.4594C22.8544 19.5178 22.8707 19.5765 22.8878 19.6361L22.9141 19.7463C22.9907 20.0378 23.0576 20.3269 23.1054 20.6184C23.1437 20.8181 23.1796 21.0085 23.1987 21.2014C23.2274 21.4193 23.2561 21.6374 23.2657 21.8554C23.2848 22.0551 23.2944 22.264 23.2944 22.4636C23.2944 22.9732 23.2466 23.4643 23.1342 23.9279C23.1272 23.9526 23.1202 23.9777 23.1131 24.0029C23.0816 24.1159 23.0489 24.2331 23.0097 24.3457C22.9744 24.466 22.9286 24.5865 22.8811 24.7115C22.8643 24.7557 22.8472 24.8004 22.8304 24.8459C22.8273 24.8538 22.8243 24.8618 22.8212 24.8697C22.7859 24.9608 22.75 25.0536 22.706 25.1443C22.4692 25.6905 22.175 26.2345 21.8713 26.744C21.4264 27.4991 20.9792 28.1624 20.6659 28.5893C20.6466 28.617 20.6278 28.6433 20.6098 28.6687C20.5874 28.7001 20.5661 28.7299 20.5463 28.7591C20.4482 28.8922 20.5486 29.0804 20.7185 29.0804H24.0286V31.589H20.6802C19.7809 31.589 18.9486 31.1001 18.5468 30.3175C18.3387 29.925 18.2574 29.4935 18.3052 29.0712C18.3172 28.945 18.2191 28.8257 18.0852 28.8257H11.3213C11.2066 28.8257 11.1133 28.9152 11.1133 29.0253V29.1585C11.1133 33.2988 14.598 36.6543 18.8984 36.6543H31.0316C33.306 36.6543 34.5975 34.6654 35.8668 32.7106C36.2207 32.1657 36.5728 31.6234 36.944 31.1276C37.6113 30.2372 39.2162 29.5303 39.6849 29.3375C39.7615 29.3054 39.8141 29.2319 39.8141 29.1493Z" fill="#2081E2"/>
</svg>
