<svg width="50" height="50" viewBox="0 0 50 50" fill="none" xmlns="http://www.w3.org/2000/svg">
<path fill-rule="evenodd" clip-rule="evenodd" d="M25 50C38.8071 50 50 38.8071 50 25C50 11.1929 38.8071 0 25 0C11.1929 0 0 11.1929 0 25C0 38.8071 11.1929 50 25 50ZM30.396 20.3076C30.979 20.021 31.6353 20.021 32.146 20.3076L38.0522 23.6748C38.6353 24.033 38.9272 24.606 38.9272 25.1792V31.9851C38.9272 32.6299 38.5625 33.2031 38.0522 33.4897L32.146 36.8569C31.5625 37.1433 30.9062 37.1433 30.396 36.8569L24.4897 33.4897C23.9062 33.1313 23.6147 32.5583 23.6147 31.9851V29.6211L26.3853 28.0449V30.3374C26.3853 30.9822 26.75 31.5554 27.2603 31.8418L30.396 33.6331C30.979 33.9194 31.6353 33.9194 32.146 33.6331L35.2085 31.8418C35.7915 31.4836 36.0835 30.9106 36.0835 30.3374V26.7554C36.0835 26.1106 35.7188 25.5374 35.2085 25.2507L32.0728 23.4597C31.4897 23.1733 30.8335 23.1733 30.3228 23.4597L26.3125 25.7524L23.5415 27.3284L19.5312 29.6211C18.9478 29.9075 18.2915 29.9075 17.7812 29.6211L11.875 26.2539C11.2915 25.8958 11 25.3225 11 24.7493V18.0151C11 17.7927 11.0439 17.5703 11.1318 17.3645C11.2705 17.0403 11.5181 16.7576 11.875 16.5823L17.854 13.1433C18.4375 12.8569 19.0938 12.8569 19.604 13.1433L25.4375 16.5105C26.021 16.8687 26.3125 17.4419 26.3125 18.0151V20.4509L23.5415 22.0269V19.6628C23.5415 19.0181 23.1772 18.4448 22.6665 18.1582L19.5312 16.2957C18.9478 16.009 18.2915 16.009 17.7812 16.2957L14.646 18.0867C14.0625 18.4448 13.771 19.0181 13.771 19.5911V23.1733C13.771 23.8181 14.1353 24.3911 14.646 24.6777L17.7812 26.5405C18.3647 26.8269 19.021 26.8269 19.5312 26.5405L23.5415 24.1763L26.3125 22.6716L30.396 20.3076Z" fill="#0D2638"/>
</svg>
