<svg width="130" height="46" viewBox="0 0 130 46" fill="none" xmlns="http://www.w3.org/2000/svg">
<path d="M10.3784 24.96L10.4384 24.48C10.4384 22.76 10.9184 21.4 11.8784 20.4C12.8784 19.4 13.9584 18.74 15.1184 18.42C16.2784 18.1 17.3384 17.56 18.2984 16.8C19.2984 16.04 19.7984 15.02 19.7984 13.74C19.7984 12.42 19.4184 11.4 18.6584 10.68C17.9384 9.96 16.8384 9.6 15.3584 9.6C13.8784 9.6 12.7784 9.84 12.0584 10.32C11.3784 10.76 10.9584 11.22 10.7984 11.7L10.6184 12.42C10.2584 13.46 9.83844 14.26 9.35844 14.82C8.87844 15.34 8.25844 15.6 7.49844 15.6C6.73844 15.6 5.73844 15.36 4.49844 14.88C2.09844 13.96 0.898438 12.82 0.898438 11.46C0.898438 10.86 1.01844 10.26 1.25844 9.66C1.49844 9.02 1.69844 8.5 1.85844 8.1C2.01844 7.66 2.43844 6.92 3.11844 5.88C3.83844 4.84 4.63844 3.94 5.51844 3.18C6.43844 2.38 7.71844 1.66 9.35844 1.02C10.9984 0.340002 12.8184 0 14.8184 0C19.0584 0 22.5184 1.36 25.1984 4.08C27.8784 6.8 29.2184 9.96 29.2184 13.56C29.2184 15.28 28.8984 16.88 28.2584 18.36C27.6584 19.8 26.9184 20.94 26.0384 21.78C24.2784 23.46 22.6384 24.58 21.1184 25.14L20.1584 25.44C20.1584 26.12 20.1184 26.64 20.0384 27C19.9984 27.36 19.8184 27.76 19.4984 28.2C19.2184 28.6 18.7184 28.9 17.9984 29.1C17.3184 29.26 16.3984 29.34 15.2384 29.34C14.0784 29.34 13.1384 29.24 12.4184 29.04C11.7384 28.84 11.2584 28.5 10.9784 28.02C10.6984 27.54 10.5184 27.12 10.4384 26.76C10.3984 26.36 10.3784 25.76 10.3784 24.96ZM10.1384 35.7C10.4584 35.06 11.0184 34.6 11.8184 34.32C12.6584 34.04 13.9584 33.9 15.7184 33.9C17.4784 33.9 18.7384 34.3 19.4984 35.1C20.2984 35.86 20.6984 37.36 20.6984 39.6C20.6984 41.2 20.4984 42.4 20.0984 43.2C19.6984 43.96 19.0784 44.48 18.2384 44.76C17.4384 45 16.1784 45.12 14.4584 45.12C12.7384 45.12 11.4184 44.7 10.4984 43.86C9.81844 43.18 9.47844 42.02 9.47844 40.38V39.42C9.47844 38.5 9.49844 37.8 9.53844 37.32C9.61844 36.84 9.81844 36.3 10.1384 35.7Z" fill="#FF9EDE"/>
<path d="M41.0816 24.96L41.1416 24.48C41.1416 22.76 41.6216 21.4 42.5816 20.4C43.5816 19.4 44.6616 18.74 45.8216 18.42C46.9816 18.1 48.0416 17.56 49.0016 16.8C50.0016 16.04 50.5016 15.02 50.5016 13.74C50.5016 12.42 50.1216 11.4 49.3616 10.68C48.6416 9.96 47.5416 9.6 46.0616 9.6C44.5816 9.6 43.4816 9.84 42.7616 10.32C42.0816 10.76 41.6616 11.22 41.5016 11.7L41.3216 12.42C40.9616 13.46 40.5416 14.26 40.0616 14.82C39.5816 15.34 38.9616 15.6 38.2016 15.6C37.4416 15.6 36.4416 15.36 35.2016 14.88C32.8016 13.96 31.6016 12.82 31.6016 11.46C31.6016 10.86 31.7216 10.26 31.9616 9.66C32.2016 9.02 32.4016 8.5 32.5616 8.1C32.7216 7.66 33.1416 6.92 33.8216 5.88C34.5416 4.84 35.3416 3.94 36.2216 3.18C37.1416 2.38 38.4216 1.66 40.0616 1.02C41.7016 0.340002 43.5216 0 45.5216 0C49.7616 0 53.2216 1.36 55.9016 4.08C58.5816 6.8 59.9216 9.96 59.9216 13.56C59.9216 15.28 59.6016 16.88 58.9616 18.36C58.3616 19.8 57.6216 20.94 56.7416 21.78C54.9816 23.46 53.3416 24.58 51.8216 25.14L50.8616 25.44C50.8616 26.12 50.8216 26.64 50.7416 27C50.7016 27.36 50.5216 27.76 50.2016 28.2C49.9216 28.6 49.4216 28.9 48.7016 29.1C48.0216 29.26 47.1016 29.34 45.9416 29.34C44.7816 29.34 43.8416 29.24 43.1216 29.04C42.4416 28.84 41.9616 28.5 41.6816 28.02C41.4016 27.54 41.2216 27.12 41.1416 26.76C41.1016 26.36 41.0816 25.76 41.0816 24.96ZM40.8416 35.7C41.1616 35.06 41.7216 34.6 42.5216 34.32C43.3616 34.04 44.6616 33.9 46.4216 33.9C48.1816 33.9 49.4416 34.3 50.2016 35.1C51.0016 35.86 51.4016 37.36 51.4016 39.6C51.4016 41.2 51.2016 42.4 50.8016 43.2C50.4016 43.96 49.7816 44.48 48.9416 44.76C48.1416 45 46.8816 45.12 45.1616 45.12C43.4416 45.12 42.1216 44.7 41.2016 43.86C40.5216 43.18 40.1816 42.02 40.1816 40.38V39.42C40.1816 38.5 40.2016 37.8 40.2416 37.32C40.3216 36.84 40.5216 36.3 40.8416 35.7Z" fill="#FF9EDE"/>
<path d="M71.7847 24.96L71.8447 24.48C71.8447 22.76 72.3247 21.4 73.2847 20.4C74.2847 19.4 75.3647 18.74 76.5247 18.42C77.6847 18.1 78.7447 17.56 79.7047 16.8C80.7047 16.04 81.2047 15.02 81.2047 13.74C81.2047 12.42 80.8247 11.4 80.0647 10.68C79.3447 9.96 78.2447 9.6 76.7647 9.6C75.2847 9.6 74.1847 9.84 73.4647 10.32C72.7847 10.76 72.3647 11.22 72.2047 11.7L72.0247 12.42C71.6647 13.46 71.2447 14.26 70.7647 14.82C70.2847 15.34 69.6647 15.6 68.9047 15.6C68.1447 15.6 67.1447 15.36 65.9047 14.88C63.5047 13.96 62.3047 12.82 62.3047 11.46C62.3047 10.86 62.4247 10.26 62.6647 9.66C62.9047 9.02 63.1047 8.5 63.2647 8.1C63.4247 7.66 63.8447 6.92 64.5247 5.88C65.2447 4.84 66.0447 3.94 66.9247 3.18C67.8447 2.38 69.1247 1.66 70.7647 1.02C72.4047 0.340002 74.2247 0 76.2247 0C80.4647 0 83.9247 1.36 86.6047 4.08C89.2847 6.8 90.6247 9.96 90.6247 13.56C90.6247 15.28 90.3047 16.88 89.6647 18.36C89.0647 19.8 88.3247 20.94 87.4447 21.78C85.6847 23.46 84.0447 24.58 82.5247 25.14L81.5647 25.44C81.5647 26.12 81.5247 26.64 81.4447 27C81.4047 27.36 81.2247 27.76 80.9047 28.2C80.6247 28.6 80.1247 28.9 79.4047 29.1C78.7247 29.26 77.8047 29.34 76.6447 29.34C75.4847 29.34 74.5447 29.24 73.8247 29.04C73.1447 28.84 72.6647 28.5 72.3847 28.02C72.1047 27.54 71.9247 27.12 71.8447 26.76C71.8047 26.36 71.7847 25.76 71.7847 24.96ZM71.5447 35.7C71.8647 35.06 72.4247 34.6 73.2247 34.32C74.0647 34.04 75.3647 33.9 77.1247 33.9C78.8847 33.9 80.1447 34.3 80.9047 35.1C81.7047 35.86 82.1047 37.36 82.1047 39.6C82.1047 41.2 81.9047 42.4 81.5047 43.2C81.1047 43.96 80.4847 44.48 79.6447 44.76C78.8447 45 77.5847 45.12 75.8647 45.12C74.1447 45.12 72.8247 44.7 71.9047 43.86C71.2247 43.18 70.8847 42.02 70.8847 40.38V39.42C70.8847 38.5 70.9047 37.8 70.9447 37.32C71.0247 36.84 71.2247 36.3 71.5447 35.7Z" fill="#FF9EDE"/>
<path d="M115.84 24C115.84 21.7067 116.44 19.88 117.64 18.52C118.84 17.16 120.507 16.48 122.64 16.48C124.8 16.48 126.453 17.1467 127.6 18.48C128.747 19.8133 129.32 21.6667 129.32 24.04C129.32 26.3867 128.747 28.2133 127.6 29.52C126.453 30.8 124.827 31.44 122.72 31.44C120.613 31.44 118.933 30.7733 117.68 29.44C116.453 28.08 115.84 26.2667 115.84 24ZM122.56 26.64C124.187 26.64 125 25.7333 125 23.92C125 22.96 124.8 22.28 124.4 21.88C124.027 21.48 123.413 21.28 122.56 21.28C121.733 21.28 121.133 21.4933 120.76 21.92C120.387 22.32 120.2 23 120.2 23.96C120.2 24.92 120.387 25.6133 120.76 26.04C121.16 26.44 121.76 26.64 122.56 26.64ZM99 9.44C99 7.14667 99.6 5.32 100.8 3.96C102 2.6 103.667 1.92 105.8 1.92C107.933 1.92 109.573 2.58667 110.72 3.92C111.893 5.25333 112.48 7.09333 112.48 9.44C112.48 11.7867 111.893 13.6133 110.72 14.92C109.573 16.2 107.947 16.84 105.84 16.84C103.76 16.84 102.093 16.1733 100.84 14.84C99.6133 13.5067 99 11.7067 99 9.44ZM105.72 12.04C107.32 12.04 108.12 11.1467 108.12 9.36C108.12 8.4 107.933 7.72 107.56 7.32C107.187 6.92 106.573 6.72 105.72 6.72C104.893 6.72 104.28 6.93333 103.88 7.36C103.507 7.76 103.32 8.44 103.32 9.4C103.32 10.3333 103.52 11.0133 103.92 11.44C104.32 11.84 104.92 12.04 105.72 12.04ZM120.48 0.92C120.827 0.306667 121.16 0 121.48 0C121.827 0 122.32 0.173333 122.96 0.52C123.6 0.866667 123.92 1.24 123.92 1.64C123.92 1.82667 123.827 2.08 123.64 2.4L108.16 31.64L108.08 31.76C107.787 32.2933 107.48 32.56 107.16 32.56C106.84 32.56 106.36 32.3867 105.72 32.04C105.08 31.72 104.76 31.4 104.76 31.08C104.76 30.76 104.853 30.44 105.04 30.12L120.48 0.92Z" fill="#FF9EDE"/>
</svg>
