<svg width="120" height="120" viewBox="0 0 120 120" fill="none" xmlns="http://www.w3.org/2000/svg">
<g clip-path="url(#clip0_154:872)">
<path d="M3.51592 37.1064C10.6497 37.1064 17.3495 39.8585 22.3831 44.8563C27.4148 49.8514 30.1852 56.5046 30.1852 63.5898C30.1852 65.5317 31.7599 67.1055 33.7009 67.1055C35.6427 67.1055 37.2165 65.5317 37.2165 63.5898C37.2165 56.5046 39.9878 49.8514 45.0195 44.8563C50.0531 39.8585 56.7529 37.1064 63.8867 37.1064C65.8286 37.1064 67.4023 35.5326 67.4023 33.5908C67.4023 31.6489 65.8286 30.0751 63.8867 30.0751C49.1815 30.0751 37.2165 18.1595 37.2165 3.51385C37.2165 1.57202 35.6427 -0.0017728 33.7009 -0.00177297C31.7599 -0.00177314 30.1852 1.57202 30.1852 3.51385C30.1852 18.1595 18.2211 30.0751 3.51592 30.0751C1.57408 30.0751 0.000293017 31.6489 0.000292847 33.5908C0.000292677 35.5326 1.57408 37.1064 3.51592 37.1064Z" fill="#83CAFF"/>
<path d="M71.8982 64.5981C82.2519 64.5981 90.6757 72.9597 90.6757 83.2383C90.6757 85.1792 92.2495 86.7539 94.1913 86.7539C96.1331 86.7539 97.7069 85.1792 97.7069 83.2383C97.7069 72.9597 106.131 64.5981 116.484 64.5981C118.426 64.5981 120 63.0234 120 61.0825C120 59.1407 118.426 57.5669 116.484 57.5669C106.131 57.5669 97.7069 49.1788 97.7069 38.8691C97.7069 36.9282 96.1331 35.3535 94.1913 35.3535C92.2495 35.3535 90.6757 36.9282 90.6757 38.8691C90.6757 49.1788 82.2519 57.5669 71.8982 57.5669C69.9564 57.5669 68.3826 59.1407 68.3826 61.0825C68.3826 63.0234 69.9564 64.5981 71.8982 64.5981Z" fill="#83CAFF"/>
<path d="M66.1787 95.7056C58.5643 95.7056 52.3689 89.5578 52.3689 82.002C52.3689 80.061 50.7951 78.4863 48.8533 78.4863C46.9114 78.4863 45.3376 80.061 45.3376 82.002C45.3376 89.5825 39.1423 95.7495 31.5278 95.7495C29.586 95.7495 28.0122 97.3242 28.0122 99.2651C28.0122 101.207 29.586 102.781 31.5278 102.781C39.1423 102.781 45.3376 108.929 45.3376 116.484C45.3376 118.426 46.9114 120 48.8533 120C50.7951 120 52.3689 118.426 52.3689 116.484C52.3689 108.904 58.5643 102.737 66.1787 102.737C68.1205 102.737 69.6943 101.163 69.6943 99.2212C69.6943 97.2794 68.1205 95.7056 66.1787 95.7056Z" fill="#83CAFF"/>
</g>
<defs>
<clipPath id="clip0_154:872">
<rect width="120" height="120" fill="white" transform="translate(120 120) rotate(-180)"/>
</clipPath>
</defs>
</svg>
