<svg width="50" height="50" viewBox="0 0 50 50" fill="none" xmlns="http://www.w3.org/2000/svg">
<path fill-rule="evenodd" clip-rule="evenodd" d="M25 50C38.8071 50 50 38.8071 50 25C50 11.1929 38.8071 0 25 0C11.1929 0 0 11.1929 0 25C0 38.8071 11.1929 50 25 50ZM36.3312 17.809C37.4878 17.6701 38.5881 17.3641 39.6146 16.9084C38.8485 18.0543 37.8806 19.0612 36.7652 19.8663C36.7739 20.1094 36.7804 20.3589 36.7804 20.6063C36.7804 28.1541 31.0339 36.8585 20.526 36.8585C17.299 36.8585 14.2956 35.9145 11.7695 34.2912C12.2144 34.3455 12.668 34.3715 13.1302 34.3715C15.8082 34.3715 18.2713 33.4601 20.2244 31.928C17.7266 31.8824 15.6172 30.2266 14.888 27.9588C15.2374 28.0282 15.5955 28.0629 15.9644 28.0629C16.4852 28.0629 16.9909 27.9935 17.4683 27.8633C14.8576 27.3359 12.8872 25.0291 12.8872 22.26V22.1884C13.6576 22.6159 14.5386 22.8741 15.4761 22.9045C13.9418 21.878 12.9349 20.1289 12.9349 18.1476C12.9349 17.1016 13.2148 16.1207 13.7075 15.2743C16.5265 18.7313 20.7344 21.0056 25.4826 21.2444C25.385 20.8255 25.3329 20.3893 25.3329 19.9423C25.3329 16.7869 27.8915 14.2305 31.0469 14.2305C32.6897 14.2305 34.174 14.9227 35.2157 16.0339C36.5156 15.7778 37.7418 15.3025 38.8442 14.6493C38.4188 15.9818 37.5117 17.1016 36.3312 17.809Z" fill="#00ACEE"/>
</svg>
